{
	"asset":{
		"generator":"Khronos glTF Blender I/O v3.5.30",
		"version":"2.0"
	},
	"extensionsUsed":[
		"KHR_materials_specular",
		"KHR_materials_ior"
	],
	"scene":0,
	"scenes":[
		{
			"name":"Scene",
			"nodes":[
				0
			]
		}
	],
	"nodes":[
		{
			"mesh":0,
			"name":"Untitled",
			"rotation":[
				0.7071068286895752,
				0,
				0,
				0.7071068286895752
			]
		}
	],
	"materials":[
		{
			"doubleSided":true,
			"extensions":{
				"KHR_materials_specular":{
					"specularColorFactor":[
						0,
						0,
						0
					]
				},
				"KHR_materials_ior":{
					"ior":1.4500000476837158
				}
			},
			"name":"palette",
			"pbrMetallicRoughness":{
				"baseColorTexture":{
					"index":0
				},
				"metallicFactor":0
			}
		}
	],
	"meshes":[
		{
			"name":"Untitled",
			"primitives":[
				{
					"attributes":{
						"POSITION":0,
						"TEXCOORD_0":1,
						"NORMAL":2
					},
					"indices":3,
					"material":0
				}
			]
		}
	],
	"textures":[
		{
			"sampler":0,
			"source":0
		}
	],
	"images":[
		{
			"bufferView":4,
			"mimeType":"image/png",
			"name":"aison_Demo skyscraper.vox"
		}
	],
	"accessors":[
		{
			"bufferView":0,
			"componentType":5126,
			"count":2226,
			"max":[
				2,
				2,
				0
			],
			"min":[
				-2,
				-2,
				-7.099999904632568
			],
			"type":"VEC3"
		},
		{
			"bufferView":1,
			"componentType":5126,
			"count":2226,
			"type":"VEC2"
		},
		{
			"bufferView":2,
			"componentType":5126,
			"count":2226,
			"type":"VEC3"
		},
		{
			"bufferView":3,
			"componentType":5123,
			"count":4128,
			"type":"SCALAR"
		}
	],
	"bufferViews":[
		{
			"buffer":0,
			"byteLength":26712,
			"byteOffset":0,
			"target":34962
		},
		{
			"buffer":0,
			"byteLength":17808,
			"byteOffset":26712,
			"target":34962
		},
		{
			"buffer":0,
			"byteLength":26712,
			"byteOffset":44520,
			"target":34962
		},
		{
			"buffer":0,
			"byteLength":8256,
			"byteOffset":71232,
			"target":34963
		},
		{
			"buffer":0,
			"byteLength":1260,
			"byteOffset":79488
		}
	],
	"samplers":[
		{
			"magFilter":9729,
			"minFilter":9987
		}
	],
	"buffers":[
		{
			"byteLength":80748,
			"uri":"data:application/octet-stream;base64,"
		}
	]
}
