{
	"asset":{
		"generator":"Khronos glTF Blender I/O v3.5.30",
		"version":"2.0"
	},
	"extensionsUsed":[
		"KHR_materials_specular",
		"KHR_materials_ior"
	],
	"scene":0,
	"scenes":[
		{
			"name":"Scene",
			"nodes":[
				0
			]
		}
	],
	"nodes":[
		{
			"mesh":0,
			"name":"Untitled",
			"rotation":[
				0.7071068286895752,
				0,
				0,
				0.7071068286895752
			]
		}
	],
	"materials":[
		{
			"doubleSided":true,
			"extensions":{
				"KHR_materials_specular":{
					"specularColorFactor":[
						0,
						0,
						0
					]
				},
				"KHR_materials_ior":{
					"ior":1.4500000476837158
				}
			},
			"name":"palette.001",
			"pbrMetallicRoughness":{
				"baseColorTexture":{
					"index":0
				},
				"metallicFactor":0
			}
		}
	],
	"meshes":[
		{
			"name":"Untitled.001",
			"primitives":[
				{
					"attributes":{
						"POSITION":0,
						"TEXCOORD_0":1,
						"NORMAL":2
					},
					"indices":3,
					"material":0
				}
			]
		}
	],
	"textures":[
		{
			"sampler":0,
			"source":0
		}
	],
	"images":[
		{
			"bufferView":4,
			"mimeType":"image/png",
			"name":"cyrus new Satellite.vox"
		}
	],
	"accessors":[
		{
			"bufferView":0,
			"componentType":5126,
			"count":30555,
			"max":[
				10.300000190734863,
				12.899999618530273,
				-0.8999999761581421
			],
			"min":[
				-10.300000190734863,
				-12.600000381469727,
				-26.5
			],
			"type":"VEC3"
		},
		{
			"bufferView":1,
			"componentType":5126,
			"count":30555,
			"type":"VEC2"
		},
		{
			"bufferView":2,
			"componentType":5126,
			"count":30555,
			"type":"VEC3"
		},
		{
			"bufferView":3,
			"componentType":5123,
			"count":56592,
			"type":"SCALAR"
		}
	],
	"bufferViews":[
		{
			"buffer":0,
			"byteLength":366660,
			"byteOffset":0,
			"target":34962
		},
		{
			"buffer":0,
			"byteLength":244440,
			"byteOffset":366660,
			"target":34962
		},
		{
			"buffer":0,
			"byteLength":366660,
			"byteOffset":611100,
			"target":34962
		},
		{
			"buffer":0,
			"byteLength":113184,
			"byteOffset":977760,
			"target":34963
		},
		{
			"buffer":0,
			"byteLength":1260,
			"byteOffset":1090944
		}
	],
	"samplers":[
		{
			"magFilter":9729,
			"minFilter":9987
		}
	],
	"buffers":[
		{
			"byteLength":1092204,
			"uri":"data:application/octet-stream;base64,"
		}
	]
}
